<?xml version="1.0" standalone="no"?>
<!DOCTYPE svg PUBLIC "-//W3C//DTD SVG 20010904//EN"
 "http://www.w3.org/TR/2001/REC-SVG-20010904/DTD/svg10.dtd">
<svg version="1.0" xmlns="http://www.w3.org/2000/svg"
 width="221.000000pt" height="221.000000pt" viewBox="0 0 221.000000 221.000000"
 preserveAspectRatio="xMidYMid meet">
<metadata>
Created by potrace 1.11, written by Peter Selinger 2001-2013
</metadata>
<g transform="translate(0.000000,221.000000) scale(0.100000,-0.100000)"
fill="#000000" stroke="none">
<path d="M960 2130 c-25 -4 -61 -10 -80 -14 -57 -9 -159 -45 -235 -83 -355
-178 -580 -539 -576 -924 1 -113 7 -159 32 -256 99 -391 439 -702 834 -763
557 -86 1075 280 1180 834 18 92 17 271 0 366 -80 427 -407 754 -833 833 -80
15 -250 19 -322 7z m365 -200 c365 -117 601 -440 598 -820 0 -127 -27 -237
-89 -362 -79 -163 -206 -293 -358 -370 -81 -41 -185 -76 -249 -83 l-52 -6 2
173 c1 95 2 180 2 189 1 19 1 19 175 -6 55 -8 101 -13 103 -11 2 2 5 41 8 87
5 96 11 139 31 224 8 33 17 69 19 79 30 130 130 358 197 446 21 29 37 55 34
58 -9 8 -122 -26 -177 -54 -85 -43 -156 -119 -111 -119 17 0 17 -8 3 -73 -16
-72 -97 -405 -111 -453 l-10 -36 -80 0 c-65 -1 -80 2 -84 16 -3 9 -5 134 -4
279 0 236 2 262 17 263 9 1 35 1 59 1 l43 -1 -36 62 c-49 83 -145 279 -145
295 0 26 -19 10 -31 -25 -17 -55 -89 -199 -132 -265 -20 -32 -33 -59 -29 -61
4 -2 26 -3 50 -2 23 1 46 -3 51 -9 5 -6 9 -131 8 -281 l-2 -270 -85 0 -84 0
-48 195 c-89 362 -89 358 -67 365 26 9 24 20 -8 50 -56 52 -171 105 -257 119
l-39 6 38 -41 c73 -81 192 -367 229 -549 23 -115 25 -129 28 -222 2 -49 5 -88
8 -88 3 0 43 6 90 14 124 21 180 25 186 14 4 -6 6 -78 6 -162 -1 -210 -1 -218
-9 -213 -5 3 -26 8 -48 11 -101 16 -251 81 -350 151 -279 199 -405 583 -304
930 30 106 130 264 225 359 73 72 214 160 294 182 124 34 183 42 300 40 97 -3
141 -8 195 -26z"/>
</g>
</svg>
